With: Vin Diesel, Paul Walker and Dwayne Johnson

Nadat ex-agent Brian O’Connor (Paul Walker) en Mia Toretto (Jordana Brewster) Dom Toretto (Vin Diesel) hebben helpen ontsnappen uit de gevangenis, zijn ze op de vlucht voor de politie. Als ze uiteindelijk in Rio de Janeiro belanden moeten ze, om hun vrijheid terug te krijgen, nog één klus aannemen. Ze worden echter op de hielen gezeten door FBI-agent Luke Hobbs (Dwayne Johnson), die alles op alles zet om Dom, Brian, Mia en hun team op te pakken.

Dominic and his crew find themselves on the wrong side of the law once again as they try to switch lanes between a ruthless drug lord and a relentless federal agent.

------------------ Dutch Friends ------------------
You can find my Friends at: http://www.Film-Test.nl 
------ They got my dutchs subs ---- and more ------

General:

Complete name                    : Fast and Furious 5\Fast Five.avi
Format                           : AVI
Format/Info                      : Audio Video Interleave
File size                        : 1.96 GiB
Duration                         : 2h 10mn
Overall bit rate                 : 2 153 Kbps

Video:

Format                           : MPEG-4 Visual
Format profile                   : Simple@L3
Format settings, BVOP            : No
Format settings, QPel            : No
Format settings, GMC             : No warppoints
Format settings, Matrix          : Default (H.263)
Codec ID                         : XVID
Codec ID/Hint                    : XviD
Duration                         : 2h 10mn
Bit rate                         : 1 695 Kbps
Width                            : 720 pixels
Height                           : 304 pixels
Display aspect ratio             : 2.35:1
Frame rate                       : 23.976 fps
Color space                      : YUV
Chroma subsampling               : 4:2:0
Bit depth                        : 8 bits
Scan type                        : Progressive
Bits/(Pixel*Frame)               : 0.323
Stream size                      : 1.54 GiB (79%)
Writing library                  : XviD 1.1.2 (UTC 2006-11-01)

Audio:

Format                           : AC-3
Format/Info                      : Audio Coding 3
Mode extension                   : CM (complete main)
Codec ID                         : 2000
Duration                         : 2h 10mn
Bit rate mode                    : Constant
Bit rate                         : 448 Kbps
Channel(s)                       : 6 channels
Channel positions                : Front: L C R, Side: L R, LFE
Sampling rate                    : 48.0 KHz
Bit depth                        : 16 bits
Stream size                      : 418 MiB (21%)
Alignment                        : Aligned on interleaves
Interleave, duration             : 32 ms (0.77 video frame)
Interleave, preload duration     : 32 ms

